<?xml version="1.0" encoding="iso-8859-1"?>
<!-- Generator: Adobe Illustrator 27.5.0, SVG Export Plug-In . SVG Version: 6.00 Build 0)  -->
<svg version="1.1" id="Layer_1" xmlns="http://www.w3.org/2000/svg" xmlns:xlink="http://www.w3.org/1999/xlink" x="0px" y="0px"
	 viewBox="0 0 512 512" style="enable-background:new 0 0 512 512;" xml:space="preserve">
<g>
	<g>
		<path d="M416,243.441c6.075,0,11-4.925,11-11V41c0-6.075-4.925-11-11-11H265.502C260.683,12.716,244.799,0,226,0
			s-34.684,12.716-39.502,30H36c-6.075,0-11,4.925-11,11v460c0,6.075,4.925,11,11,11h380c6.075,0,11-4.925,11-11V302.33
			c0-6.075-4.925-11-11-11s-11,4.925-11,11V490H47V52h78v23H81c-6.075,0-11,4.925-11,11V456c0,6.075,4.925,11,11,11h290
			c6.075,0,11-4.925,11-11V347.08c0-6.075-4.925-11-11-11s-11,4.925-11,11V445H92V97h33v4c0,6.075,4.925,11,11,11h180
			c6.075,0,11-4.925,11-11v-4h33v180.316c0,6.075,4.925,11,11,11s11-4.925,11-11V86c0-6.075-4.925-11-11-11h-44V52h78v180.441
			C405,238.516,409.925,243.441,416,243.441z M305,90H147V52h49c6.075,0,11-4.925,11-11c0-10.477,8.523-19,19-19s19,8.523,19,19
			c0,6.075,4.925,11,11,11h49V90z"/>
		<path d="M337,183.045c0-6.075-4.925-11-11-11h-99.998c-6.075,0-11,4.925-11,11s4.925,11,11,11H326
			C332.075,194.045,337,189.121,337,183.045z"/>
		<path d="M309.859,273.045c0-6.075-4.925-11-11-11h-72.857c-6.075,0-11,4.925-11,11s4.925,11,11,11h72.857
			C304.934,284.045,309.859,279.12,309.859,273.045z"/>
		<path d="M226.002,352.044c-6.075,0-11,4.925-11,11s4.925,11,11,11h21.249c6.075,0,11-4.925,11-11s-4.925-11-11-11H226.002z"/>
	</g>
	<g>
		<path style="fill:#33CCCC;" d="M483.778,231.177l-31.819-31.82c-2.063-2.063-4.861-3.222-7.778-3.222s-5.715,1.159-7.778,3.222
			L295.544,340.215c-1.269,1.269-2.208,2.829-2.735,4.543l-14.143,45.962c-1.198,3.894-0.146,8.132,2.735,11.013
			c2.095,2.094,4.904,3.222,7.779,3.222c1.08,0,2.17-0.16,3.234-0.487l45.962-14.142c1.716-0.528,3.275-1.467,4.544-2.735
			l140.857-140.858C488.074,242.438,488.074,235.473,483.778,231.177z M329.296,370.103l-23.492,7.228l7.229-23.492l131.148-131.148
			l16.263,16.264L329.296,370.103z"/>
		<path style="fill:#33CCCC;" d="M178.222,155.267L146,187.489l-12.222-12.222c-4.297-4.296-11.262-4.295-15.557,0
			c-4.296,4.295-4.296,11.26,0,15.556l20,20c2.148,2.148,4.963,3.222,7.778,3.222s5.63-1.074,7.778-3.222l40-40
			c4.296-4.296,4.296-11.261,0-15.557C189.481,150.971,182.518,150.971,178.222,155.267z"/>
		<path style="fill:#33CCCC;" d="M178.222,245.267L146,277.489l-12.222-12.222c-4.297-4.296-11.26-4.296-15.557,0
			c-4.296,4.296-4.296,11.261,0,15.557l20,20c2.148,2.148,4.963,3.222,7.778,3.222s5.63-1.074,7.778-3.222l40-40
			c4.296-4.296,4.296-11.261,0-15.557C189.481,240.971,182.518,240.971,178.222,245.267z"/>
		<path style="fill:#33CCCC;" d="M178.222,335.266L146,367.488l-12.222-12.222c-4.297-4.296-11.26-4.296-15.557,0
			c-4.296,4.296-4.296,11.261,0,15.557l20,20c2.148,2.148,4.963,3.222,7.778,3.222s5.63-1.074,7.778-3.222l40-40
			c4.296-4.296,4.296-11.261,0-15.557C189.481,330.97,182.518,330.97,178.222,335.266z"/>
	</g>
</g>
<g>
</g>
<g>
</g>
<g>
</g>
<g>
</g>
<g>
</g>
<g>
</g>
<g>
</g>
<g>
</g>
<g>
</g>
<g>
</g>
<g>
</g>
<g>
</g>
<g>
</g>
<g>
</g>
<g>
</g>
</svg>
