<?xml version="1.0" standalone="no"?>
<!DOCTYPE svg PUBLIC "-//W3C//DTD SVG 20010904//EN"
 "http://www.w3.org/TR/2001/REC-SVG-20010904/DTD/svg10.dtd">
<svg version="1.0" xmlns="http://www.w3.org/2000/svg"
 width="225.000000pt" height="225.000000pt" viewBox="0 0 225.000000 225.000000"
 preserveAspectRatio="xMidYMid meet">

<g transform="translate(0.000000,225.000000) scale(0.100000,-0.100000)"
fill="#000000" stroke="none">
<path d="M0 1125 l0 -1125 1125 0 1125 0 0 1125 0 1125 -1125 0 -1125 0 0
-1125z m1850 623 c-60 -53 -93 -82 -155 -133 -33 -27 -105 -88 -160 -136 -55
-47 -158 -135 -230 -194 -71 -60 -215 -181 -320 -270 -104 -89 -297 -252 -429
-363 -131 -112 -240 -201 -242 -200 -5 6 193 719 202 728 5 4 268 122 584 261
316 139 618 271 670 295 52 23 100 43 105 43 6 0 -6 -14 -25 -31z"/>
</g>
</svg>
